<?xml version="1.0" standalone="no"?>
<!DOCTYPE svg PUBLIC "-//W3C//DTD SVG 20010904//EN"
 "http://www.w3.org/TR/2001/REC-SVG-20010904/DTD/svg10.dtd">
<svg version="1.0" xmlns="http://www.w3.org/2000/svg"
 width="70.000000pt" height="70.000000pt" viewBox="0 0 70.000000 70.000000"
 preserveAspectRatio="xMidYMid meet">
<metadata>
Created by potrace 1.11, written by Peter Selinger 2001-2013
</metadata>
<g transform="translate(0.000000,70.000000) scale(0.100000,-0.100000)"
fill="#000000" stroke="none">
<path d="M283 636 c-34 -8 -72 -20 -85 -26 -53 -28 -98 -87 -98 -128 0 -11 -8
-22 -18 -24 -23 -6 -55 -73 -50 -102 3 -12 -2 -28 -10 -35 -20 -19 -11 -101
14 -130 74 -85 116 -104 133 -59 5 14 10 17 15 10 4 -7 15 -12 25 -12 10 0 24
-7 32 -16 33 -40 91 -58 189 -59 128 0 164 18 217 112 37 66 38 71 37 163 0
99 -18 154 -64 200 -10 10 -26 32 -34 48 -8 16 -32 37 -53 47 -49 24 -169 29
-250 11z m237 -41 c39 -20 50 -43 50 -103 0 -35 -6 -57 -21 -76 -11 -14 -23
-26 -27 -26 -4 0 -7 22 -8 48 -1 64 -17 92 -53 92 -19 0 -31 -7 -39 -22 -10
-22 -10 -22 -9 6 2 37 -16 44 -31 11 -17 -37 -41 -43 -62 -15 -27 35 -40 17
-23 -31 15 -45 10 -68 -6 -26 -26 68 -141 81 -141 16 0 -10 -5 -21 -12 -25 -8
-5 -9 4 -5 31 14 86 109 134 265 135 64 0 102 -5 122 -15z m-46 -126 c10 -23
11 -42 4 -68 -5 -20 -15 -58 -22 -86 l-13 -50 -11 40 c-7 22 -12 52 -12 66 0
28 28 129 36 129 3 0 11 -14 18 -31z m-237 -1 c4 -7 11 -56 14 -108 3 -52 9
-104 13 -115 5 -12 -5 -5 -22 15 -36 42 -62 115 -62 176 0 40 2 44 24 44 14 0
28 -6 33 -12z m-123 -55 c3 -10 9 -24 12 -30 3 -8 -1 -13 -10 -13 -8 0 -22
-12 -30 -27 l-15 -28 -1 38 c0 60 29 101 44 60z m31 -92 c3 -11 3 -31 0 -44
-4 -14 -2 -35 5 -46 16 -31 -3 -25 -21 7 -20 34 -32 80 -24 92 10 17 33 11 40
-9z m-75 -71 c-20 -12 -30 -3 -30 28 l0 26 23 -22 c18 -19 20 -24 7 -32z m40
-51 c0 -11 5 -29 10 -39 9 -16 8 -18 -5 -14 -14 6 -45 53 -45 69 0 3 9 5 20 5
14 0 20 -7 20 -21z"/>
</g>
</svg>
